<svg width="266" height="301" viewBox="0 0 266 301" fill="none" xmlns="http://www.w3.org/2000/svg">
<path fill-rule="evenodd" clip-rule="evenodd" d="M132.218 160.588C133.238 160.592 134.062 161.574 134.059 162.78L133.931 205.823C133.927 207.03 133.097 208.004 132.077 208C131.056 207.996 130.232 207.014 130.235 205.808L130.363 162.765C130.367 161.558 131.197 160.584 132.218 160.588Z" fill="#E2B54C"/>
<path fill-rule="evenodd" clip-rule="evenodd" d="M132.201 120.823C133.23 120.827 134.062 121.801 134.059 123L133.962 162.248C133.959 163.446 133.123 164.415 132.093 164.412C131.064 164.408 130.232 163.434 130.235 162.235L130.332 122.987C130.335 121.789 131.172 120.82 132.201 120.823Z" fill="#E2B54C"/>
<path fill-rule="evenodd" clip-rule="evenodd" d="M132.577 101.706C133.823 101.711 134.828 102.699 134.824 103.914L134.746 123.221C134.741 124.436 133.727 125.416 132.482 125.412C131.236 125.407 130.23 124.418 130.235 123.204L130.313 103.896C130.318 102.682 131.332 101.701 132.577 101.706Z" fill="#E2B54C"/>
<path fill-rule="evenodd" clip-rule="evenodd" d="M132.578 83.353C133.823 83.358 134.829 84.3412 134.824 85.5491L134.746 104.116C134.74 105.324 133.727 106.299 132.481 106.294C131.236 106.289 130.23 105.306 130.235 104.098L130.313 85.5313C130.318 84.3234 131.332 83.3481 132.578 83.353Z" fill="#069BBC"/>
<path fill-rule="evenodd" clip-rule="evenodd" d="M132.594 43.5881C133.829 43.5916 134.827 44.5651 134.824 45.7626L134.707 85.0143C134.704 86.2118 133.7 87.1798 132.465 87.1764C131.23 87.1729 130.232 86.1994 130.235 85.0019L130.351 45.7502C130.355 44.5527 131.359 43.5847 132.594 43.5881Z" fill="#069BBC"/>
<path fill-rule="evenodd" clip-rule="evenodd" d="M132.614 1.34397e-05C133.839 0.0042076 134.828 0.989007 134.824 2.19963L134.67 45.992C134.666 47.2027 133.67 48.1807 132.445 48.1765C131.22 48.1723 130.231 47.1875 130.235 45.9768L130.389 2.18444C130.393 0.973819 131.389 -0.00418072 132.614 1.34397e-05Z" fill="#069BBC"/>
<path fill-rule="evenodd" clip-rule="evenodd" d="M189.882 104.33C189.885 103.3 190.87 102.468 192.081 102.471L235.872 102.566C237.083 102.569 238.062 103.405 238.059 104.435C238.056 105.464 237.071 106.297 235.86 106.294L192.07 106.199C190.859 106.196 189.879 105.359 189.882 104.33Z" fill="#F66F51"/>
<path fill-rule="evenodd" clip-rule="evenodd" d="M150.118 103.916C150.122 102.691 151.085 101.701 152.268 101.706L191.571 101.857C192.755 101.862 193.71 102.859 193.706 104.084C193.701 105.309 192.739 106.299 191.555 106.294L152.252 106.143C151.069 106.138 150.113 105.141 150.118 103.916Z" fill="#F66F51"/>
<path fill-rule="evenodd" clip-rule="evenodd" d="M130.235 104.343C130.24 103.305 131.212 102.467 132.406 102.471L151.787 102.535C152.981 102.539 153.946 103.383 153.941 104.422C153.937 105.46 152.965 106.298 151.771 106.294L132.389 106.23C131.195 106.226 130.231 105.381 130.235 104.343Z" fill="#F66F51"/>
<path fill-rule="evenodd" clip-rule="evenodd" d="M111.118 103.953C111.122 102.707 112.096 101.701 113.292 101.706L132.666 101.783C133.862 101.787 134.828 102.801 134.824 104.047C134.819 105.293 133.846 106.299 132.65 106.294L113.275 106.217C112.079 106.212 111.113 105.199 111.118 103.953Z" fill="#61B177"/>
<path fill-rule="evenodd" clip-rule="evenodd" d="M70.5881 103.937C70.5915 102.701 71.5695 101.702 72.7726 101.706L112.769 101.82C113.972 101.824 114.944 102.828 114.941 104.063C114.938 105.299 113.96 106.297 112.757 106.294L72.7605 106.18C71.5574 106.176 70.5848 105.172 70.5881 103.937Z" fill="#61B177"/>
<path fill-rule="evenodd" clip-rule="evenodd" d="M27 103.548C27.0041 102.527 27.9893 101.702 29.2004 101.706L72.9911 101.832C74.2021 101.835 75.1806 102.666 75.1765 103.687C75.1723 104.708 74.1872 105.533 72.9761 105.529L29.1854 105.403C27.9743 105.4 26.9959 104.569 27 103.548Z" fill="#61B177"/>
<path fill-rule="evenodd" clip-rule="evenodd" d="M130.869 121.473C131.718 120.612 133.1 120.606 133.955 121.461L180.825 168.3C181.681 169.155 181.686 170.547 180.837 171.409C179.988 172.271 178.606 172.276 177.751 171.421L130.881 124.582C130.025 123.727 130.02 122.335 130.869 121.473Z" fill="#069BBC"/>
<path fill-rule="evenodd" clip-rule="evenodd" d="M133.441 121.479C134.278 122.34 134.263 123.72 133.407 124.562L86.5077 170.673C85.6516 171.514 84.2788 171.499 83.4416 170.638C82.6043 169.778 82.6196 168.398 83.4757 167.556L130.375 121.445C131.231 120.603 132.603 120.619 133.441 121.479Z" fill="#069BBC"/>
<path fill-rule="evenodd" clip-rule="evenodd" d="M130.865 161.234C131.71 160.377 133.084 160.372 133.935 161.222L158.653 185.912C159.504 186.762 159.509 188.145 158.664 189.001C157.82 189.858 156.445 189.863 155.594 189.013L130.877 164.323C130.026 163.473 130.021 162.09 130.865 161.234Z" fill="#F66F51"/>
<path fill-rule="evenodd" clip-rule="evenodd" d="M133.444 161.25C134.277 162.118 134.262 163.51 133.41 164.359L108.665 189.02C107.813 189.869 106.447 189.854 105.615 188.985C104.782 188.117 104.797 186.725 105.649 185.876L130.394 161.215C131.246 160.366 132.611 160.381 133.444 161.25Z" fill="#61B177"/>
<path fill-rule="evenodd" clip-rule="evenodd" d="M84.2214 37.346C85.0704 36.4971 86.4523 36.4917 87.308 37.3341L134.178 83.4738C135.034 84.3162 135.039 85.6872 134.19 86.5362C133.341 87.3851 131.959 87.3905 131.104 86.5481L84.2334 40.4084C83.3778 39.566 83.3724 38.195 84.2214 37.346Z" fill="#E2B54C"/>
<path fill-rule="evenodd" clip-rule="evenodd" d="M180.853 37.361C181.69 38.2211 181.674 39.6001 180.819 40.4412L133.917 86.5555C133.061 87.3966 131.69 87.3812 130.853 86.5212C130.016 85.6612 130.032 84.2821 130.887 83.441L177.789 37.3267C178.645 36.4856 180.016 36.501 180.853 37.361Z" fill="#E2B54C"/>
<path fill-rule="evenodd" clip-rule="evenodd" d="M105.647 19.7633C106.513 18.907 107.924 18.9018 108.797 19.7518L134.165 44.4414C135.038 45.2913 135.044 46.6745 134.177 47.5309C133.31 48.3872 131.899 48.3924 131.026 47.5424L105.658 22.8528C104.785 22.0029 104.78 20.6196 105.647 19.7633Z" fill="#61B177"/>
<path fill-rule="evenodd" clip-rule="evenodd" d="M159.427 19.7773C160.282 20.6438 160.267 22.0341 159.394 22.8826L133.998 47.5496C133.124 48.3981 131.723 48.3834 130.867 47.5169C130.012 46.6503 130.027 45.2601 130.9 44.4116L156.297 19.7445C157.17 18.8961 158.572 18.9108 159.427 19.7773Z" fill="#F66F51"/>
<path fill-rule="evenodd" clip-rule="evenodd" d="M114.322 102.36C115.16 103.22 115.145 104.599 114.29 105.441L67.3906 151.555C66.5348 152.396 65.1621 152.382 64.3245 151.522C63.4869 150.662 63.5016 149.283 64.3574 148.442L111.256 102.327C112.112 101.486 113.485 101.501 114.322 102.36Z" fill="#F66F51"/>
<path fill-rule="evenodd" clip-rule="evenodd" d="M64.338 55.6997C65.186 54.8504 66.5669 54.8445 67.4223 55.6865L114.296 101.826C115.151 102.668 115.157 104.039 114.309 104.889C113.461 105.738 112.08 105.744 111.225 104.902L64.3513 58.762C63.4959 57.92 63.4899 56.549 64.338 55.6997Z" fill="#F66F51"/>
<path fill-rule="evenodd" clip-rule="evenodd" d="M74.5446 102.365C75.3999 103.232 75.3852 104.622 74.5116 105.471L49.1153 130.138C48.2418 130.986 46.8403 130.972 45.985 130.105C45.1297 129.238 45.1444 127.848 46.018 127L71.4143 102.333C72.2878 101.484 73.6893 101.499 74.5446 102.365Z" fill="#E2B54C"/>
<path fill-rule="evenodd" clip-rule="evenodd" d="M46.7458 77.1175C47.5886 76.2605 48.9613 76.2543 49.8118 77.1036L74.5346 101.793C75.3851 102.643 75.3912 104.026 74.5484 104.883C73.7055 105.74 72.3329 105.746 71.4824 104.897L46.7596 80.207C45.9091 79.3577 45.903 77.9745 46.7458 77.1175Z" fill="#069BBC"/>
<path fill-rule="evenodd" clip-rule="evenodd" d="M200.735 56.4792C201.572 57.3398 201.557 58.7199 200.701 59.5616L153.802 105.673C152.946 106.514 151.573 106.499 150.736 105.638C149.899 104.778 149.914 103.398 150.77 102.556L197.669 56.4449C198.525 55.6031 199.898 55.6185 200.735 56.4792Z" fill="#61B177"/>
<path fill-rule="evenodd" clip-rule="evenodd" d="M150.741 103.111C151.578 102.262 152.939 102.257 153.782 103.099L199.953 149.239C200.795 150.081 200.801 151.452 199.964 152.301C199.128 153.15 197.767 153.155 196.924 152.313L150.753 106.173C149.91 105.331 149.905 103.96 150.741 103.111Z" fill="#61B177"/>
<path fill-rule="evenodd" clip-rule="evenodd" d="M218.328 77.8982C219.16 78.7671 219.143 80.1592 218.292 81.0074L193.541 105.669C192.69 106.517 191.326 106.5 190.495 105.631C189.664 104.762 189.68 103.37 190.532 102.522L215.282 77.8607C216.134 77.0125 217.497 77.0293 218.328 77.8982Z" fill="#069BBC"/>
<path fill-rule="evenodd" clip-rule="evenodd" d="M190.51 103.118C191.353 102.261 192.726 102.254 193.576 103.104L218.299 127.793C219.15 128.643 219.156 130.026 218.313 130.883C217.47 131.74 216.098 131.746 215.247 130.897L190.524 106.207C189.674 105.358 189.668 103.974 190.51 103.118Z" fill="#E2B54C"/>
<path fill-rule="evenodd" clip-rule="evenodd" d="M74.0336 276.273C74.2786 276.035 74.6769 276.035 74.9144 276.28L78.024 279.451H84.2432C84.5879 279.451 84.8636 279.727 84.8636 280.072C84.8636 280.416 84.5879 280.692 84.2432 280.692H77.4955L74.0259 277.161C73.7808 276.909 73.7808 276.518 74.0336 276.273Z" fill="#454545"/>
<path fill-rule="evenodd" clip-rule="evenodd" d="M87.9196 284.981C88.1647 285.226 88.1647 285.617 87.9196 285.862L83.6994 290.082C83.4543 290.327 83.0637 290.327 82.8186 290.082C82.5735 289.837 82.5735 289.446 82.8186 289.201L87.0388 284.981C87.2839 284.736 87.6745 284.736 87.9196 284.981Z" fill="#454545"/>
<path fill-rule="evenodd" clip-rule="evenodd" d="M105.712 288.497C105.957 288.742 105.957 289.133 105.712 289.378L101.492 293.598C101.247 293.843 100.856 293.843 100.611 293.598C100.366 293.353 100.366 292.962 100.611 292.717L104.831 288.497C105.076 288.252 105.475 288.252 105.712 288.497Z" fill="#454545"/>
<path fill-rule="evenodd" clip-rule="evenodd" d="M74.0259 296.01C74.271 295.773 74.6692 295.773 74.9067 296.018L78.0163 299.189H84.2355C84.5802 299.189 84.8559 299.465 84.8559 299.809C84.8559 300.154 84.5802 300.43 84.2355 300.43H77.4878L74.0105 296.891C73.7731 296.646 73.7808 296.248 74.0259 296.01Z" fill="#454545"/>
<path fill-rule="evenodd" clip-rule="evenodd" d="M97.8 280.286C98.0451 280.049 98.4434 280.049 98.6808 280.294L101.79 283.465H108.01C108.354 283.465 108.63 283.74 108.63 284.085C108.63 284.43 108.354 284.705 108.01 284.705H101.262L97.7847 281.167C97.5549 280.922 97.5549 280.531 97.8 280.286Z" fill="#454545"/>
<path fill-rule="evenodd" clip-rule="evenodd" d="M112.13 293.154C112.13 293.498 111.855 293.774 111.51 293.774H95.0581C94.7135 293.774 94.4377 293.498 94.4377 293.154C94.4377 292.809 94.7135 292.533 95.0581 292.533H111.51C111.847 292.533 112.123 292.809 112.13 293.154Z" fill="#454545"/>
<path fill-rule="evenodd" clip-rule="evenodd" d="M88.1647 285.349C88.1647 285.694 87.889 285.969 87.5443 285.969H71.0924C70.7401 285.969 70.4644 285.694 70.4644 285.349C70.4644 285.004 70.7401 284.729 71.0847 284.729H87.5367C87.8813 284.729 88.1647 285.004 88.1647 285.349Z" fill="#454545"/>
<path fill-rule="evenodd" clip-rule="evenodd" d="M118.824 286.513C119.069 286.268 119.46 286.268 119.705 286.513L122.807 289.615H129.011C129.356 289.615 129.631 289.891 129.631 290.236C129.631 290.58 129.356 290.856 129.011 290.856H122.286L118.817 287.386C118.579 287.149 118.579 286.758 118.824 286.513Z" fill="#454545"/>
<path fill-rule="evenodd" clip-rule="evenodd" d="M126.759 275.959C126.415 275.959 126.139 276.234 126.139 276.579V280.907L120.058 285.288C119.782 285.487 119.713 285.877 119.92 286.153C120.119 286.429 120.51 286.498 120.793 286.291L127.387 281.535V276.571C127.38 276.242 127.096 275.959 126.759 275.959Z" fill="#454545"/>
<path fill-rule="evenodd" clip-rule="evenodd" d="M134.296 271.149C134.641 271.149 134.916 271.424 134.916 271.769V296.447C134.916 296.792 134.641 297.067 134.296 297.067C133.951 297.067 133.676 296.792 133.676 296.447V271.769C133.668 271.432 133.951 271.149 134.296 271.149Z" fill="#454545"/>
<path fill-rule="evenodd" clip-rule="evenodd" d="M98.2137 274.044C98.5583 274.044 98.834 274.32 98.834 274.664V279.107C98.834 279.451 98.5583 279.727 98.2137 279.727C97.869 279.727 97.5933 279.451 97.5933 279.107V274.664C97.5933 274.32 97.8767 274.044 98.2137 274.044Z" fill="#454545"/>
<path fill-rule="evenodd" clip-rule="evenodd" d="M74.4624 270C74.8071 270 75.0828 270.276 75.0828 270.62V275.086C75.0828 275.43 74.8071 275.706 74.4624 275.706C74.1178 275.706 73.842 275.43 73.842 275.086V270.62C73.842 270.276 74.1254 270 74.4624 270Z" fill="#454545"/>
<path fill-rule="evenodd" clip-rule="evenodd" d="M74.4243 290.327C74.769 290.327 75.0447 290.603 75.0447 290.948V294.816C75.0447 295.16 74.769 295.436 74.4243 295.436C74.0797 295.436 73.804 295.16 73.804 294.816V290.948C73.804 290.611 74.0797 290.327 74.4243 290.327Z" fill="#454545"/>
<path fill-rule="evenodd" clip-rule="evenodd" d="M125.074 277.123H119.491C119.146 277.123 118.87 276.847 118.87 276.502C118.87 276.158 119.146 275.882 119.491 275.882H125.074C125.419 275.882 125.695 276.158 125.695 276.502C125.695 276.839 125.411 277.123 125.074 277.123Z" fill="#454545"/>
<path fill-rule="evenodd" clip-rule="evenodd" d="M181.706 297.642C181.461 297.397 181.461 297.006 181.706 296.761L188.293 290.174C188.538 289.929 188.929 289.929 189.174 290.174C189.419 290.419 189.419 290.81 189.174 291.055L182.587 297.642C182.342 297.887 181.951 297.887 181.706 297.642Z" fill="#454545"/>
<path fill-rule="evenodd" clip-rule="evenodd" d="M178.221 290.611C178.221 290.266 178.497 289.99 178.842 289.99H195.293C195.638 289.99 195.914 290.266 195.914 290.611C195.914 290.956 195.638 291.231 195.293 291.231H178.842C178.497 291.231 178.221 290.956 178.221 290.611Z" fill="#454545"/>
<path fill-rule="evenodd" clip-rule="evenodd" d="M167.583 279.758C167.828 280.003 167.828 280.393 167.583 280.638L163.362 284.859C163.117 285.104 162.727 285.104 162.482 284.859C162.237 284.614 162.237 284.223 162.482 283.978L166.702 279.758C166.947 279.52 167.338 279.52 167.583 279.758Z" fill="#454545"/>
<path fill-rule="evenodd" clip-rule="evenodd" d="M167.138 271.149C167.483 271.149 167.759 271.424 167.759 271.769V296.447C167.759 296.792 167.483 297.067 167.138 297.067C166.794 297.067 166.518 296.792 166.518 296.447V271.769C166.518 271.432 166.794 271.149 167.138 271.149Z" fill="#454545"/>
<path fill-rule="evenodd" clip-rule="evenodd" d="M171.428 271.149C171.772 271.149 172.048 271.424 172.048 271.769V296.447C172.048 296.792 171.772 297.067 171.428 297.067C171.083 297.067 170.807 296.792 170.807 296.447V271.769C170.807 271.432 171.083 271.149 171.428 271.149Z" fill="#454545"/>
<path fill-rule="evenodd" clip-rule="evenodd" d="M161.409 277.697H152.188C151.843 277.697 151.567 277.422 151.567 277.077C151.567 276.732 151.843 276.457 152.188 276.457H161.409C161.754 276.457 162.03 276.732 162.03 277.077C162.03 277.422 161.754 277.697 161.409 277.697Z" fill="#454545"/>
<path fill-rule="evenodd" clip-rule="evenodd" d="M151.284 289.906C151.039 289.661 151.039 289.27 151.284 289.025L156.454 283.848V278.77C156.454 278.425 156.73 278.149 157.075 278.149C157.419 278.149 157.695 278.425 157.695 278.77V284.368L152.157 289.914C151.92 290.151 151.529 290.151 151.284 289.906Z" fill="#454545"/>
<path fill-rule="evenodd" clip-rule="evenodd" d="M157.519 285.096C157.764 284.851 158.154 284.851 158.399 285.096L162.29 288.987C162.535 289.232 162.535 289.623 162.29 289.868C162.045 290.113 161.654 290.113 161.409 289.868L157.519 285.977C157.273 285.732 157.273 285.334 157.519 285.096Z" fill="#454545"/>
<path fill-rule="evenodd" clip-rule="evenodd" d="M191.878 275.017H182.656C182.311 275.017 182.036 274.741 182.036 274.396C182.036 274.052 182.311 273.776 182.656 273.776H191.878C192.222 273.776 192.498 274.052 192.498 274.396C192.506 274.741 192.222 275.017 191.878 275.017Z" fill="#454545"/>
<path fill-rule="evenodd" clip-rule="evenodd" d="M181.66 286.628C181.415 286.383 181.415 285.992 181.66 285.747L186.83 280.569V276.104C186.83 275.759 187.106 275.484 187.45 275.484C187.795 275.484 188.071 275.759 188.071 276.104V281.09L182.533 286.635C182.296 286.873 181.905 286.873 181.66 286.628Z" fill="#454545"/>
<path fill-rule="evenodd" clip-rule="evenodd" d="M187.895 281.818C188.14 281.573 188.53 281.573 188.775 281.818L192.666 285.709C192.911 285.954 192.911 286.344 192.666 286.59C192.421 286.835 192.031 286.835 191.785 286.59L187.895 282.699C187.657 282.454 187.657 282.063 187.895 281.818Z" fill="#454545"/>
<path d="M16.0542 237.012H8.13894L2.78448 242.366C2.45856 242.692 2.45856 243.232 2.78448 243.558C3.1104 243.884 3.65051 243.884 3.97643 243.558L8.83734 238.697H15.3651L19.9746 243.307V255.245C19.9746 255.711 20.3564 256.092 20.822 256.092C21.2876 256.092 21.6694 255.711 21.6694 255.245V242.609L16.0542 237.012Z" fill="#454545"/>
<path d="M0.847401 236.993C0.381796 236.993 0 237.375 0 237.841V255.254C0 255.72 0.381796 256.102 0.847401 256.102C1.31301 256.102 1.6948 255.72 1.6948 255.254V237.841C1.68549 237.375 1.31301 236.993 0.847401 236.993Z" fill="#454545"/>
<path d="M71.3868 236.863H63.4622L58.1077 242.217C57.7818 242.543 57.7818 243.084 58.1077 243.409C58.4336 243.735 58.9737 243.735 59.2997 243.409L64.1606 238.549H70.6791L75.2885 243.158V255.096C75.2885 255.562 75.6703 255.944 76.1359 255.944C76.6015 255.944 76.9833 255.571 76.9833 255.096V242.46L71.3868 236.863Z" fill="#454545"/>
<path d="M56.1704 236.844C55.7048 236.844 55.323 237.226 55.323 237.692V255.105C55.323 255.571 55.7048 255.953 56.1704 255.953C56.636 255.953 57.0178 255.571 57.0178 255.105V237.692C57.0178 237.226 56.636 236.844 56.1704 236.844Z" fill="#454545"/>
<path d="M99.1557 236.863H91.2311L85.8767 242.217C85.5414 242.543 85.5414 243.084 85.8767 243.409C86.2026 243.735 86.7427 243.735 87.0686 243.409L91.9295 238.549H98.448L103.057 243.158V255.096C103.057 255.562 103.439 255.944 103.905 255.944C104.37 255.944 104.752 255.571 104.752 255.096V242.46L99.1557 236.863Z" fill="#454545"/>
<path d="M83.9394 236.844C83.4738 236.844 83.092 237.226 83.092 237.692V255.105C83.092 255.571 83.4738 255.953 83.9394 255.953C84.405 255.953 84.7868 255.571 84.7868 255.105V237.692C84.7775 237.226 84.405 236.844 83.9394 236.844Z" fill="#454545"/>
<path d="M44.7728 249.379L39.9119 254.239H33.3841L28.7746 249.63V237.692C28.7746 237.226 28.3928 236.844 27.9272 236.844C27.4616 236.844 27.0798 237.217 27.0798 237.692V250.338L32.6764 255.934H40.601L45.9554 250.58C46.2814 250.254 46.2814 249.714 45.9554 249.388C45.6388 249.053 45.0987 249.053 44.7728 249.379Z" fill="#454545"/>
<path d="M47.9011 236.844C47.4355 236.844 47.0537 237.226 47.0537 237.692V255.105C47.0537 255.571 47.4355 255.953 47.9011 255.953C48.3667 255.953 48.7485 255.571 48.7485 255.105V237.692C48.7485 237.226 48.3667 236.844 47.9011 236.844Z" fill="#454545"/>
<path d="M262.014 249.379L257.153 254.239H250.626L246.016 249.63V237.692C246.016 237.226 245.634 236.844 245.169 236.844C244.703 236.844 244.321 237.217 244.321 237.692V250.338L249.918 255.934H257.842L263.197 250.58C263.523 250.254 263.523 249.714 263.197 249.388C262.88 249.053 262.35 249.053 262.014 249.379Z" fill="#454545"/>
<path d="M265.153 236.844C264.687 236.844 264.305 237.226 264.305 237.692V255.105C264.305 255.571 264.687 255.953 265.153 255.953C265.618 255.953 266 255.571 266 255.105V237.692C265.991 237.226 265.618 236.844 265.153 236.844Z" fill="#454545"/>
<path d="M218.788 249.397L213.927 254.258H207.399L202.789 249.649V243.13L207.399 238.521H213.927L217.344 241.938H205.211C204.745 241.938 204.363 242.32 204.363 242.786C204.363 243.251 204.745 243.633 205.211 243.633H219.318C219.561 243.652 219.803 243.568 219.98 243.391C220.25 243.121 220.296 242.711 220.119 242.394C220.119 242.394 220.119 242.394 220.119 242.385C220.11 242.367 220.101 242.348 220.082 242.32C220.073 242.301 220.063 242.292 220.054 242.283C220.045 242.273 220.045 242.264 220.035 242.264C220.017 242.236 219.989 242.218 219.97 242.19L214.625 236.844H206.701L201.104 242.45V250.375L206.701 255.972H214.625L219.98 250.617C220.306 250.291 220.306 249.751 219.98 249.425C219.654 249.071 219.123 249.071 218.788 249.397Z" fill="#454545"/>
<path d="M194.781 236.891C194.315 236.891 193.933 237.273 193.933 237.738V258.858L189.845 262.825L184.146 262.741L179.928 258.402C179.602 258.067 179.071 258.057 178.736 258.383C178.401 258.709 178.392 259.24 178.717 259.575L183.42 264.417L190.516 264.52L195.358 259.817C195.358 259.817 195.358 259.817 195.368 259.808C195.377 259.799 195.386 259.789 195.405 259.771C195.414 259.761 195.423 259.752 195.423 259.743C195.433 259.733 195.442 259.724 195.451 259.715C195.461 259.706 195.47 259.696 195.479 259.678C195.479 259.668 195.489 259.668 195.489 259.659C195.535 259.594 195.563 259.529 195.582 259.454C195.582 259.445 195.591 259.435 195.591 259.426C195.6 259.408 195.6 259.389 195.6 259.38C195.6 259.37 195.6 259.361 195.61 259.352C195.61 259.333 195.619 259.314 195.619 259.296C195.619 259.286 195.619 259.277 195.619 259.268C195.619 259.249 195.619 259.231 195.619 259.212V259.203V237.738C195.619 237.273 195.246 236.891 194.781 236.891Z" fill="#454545"/>
<path d="M194.781 230C194.315 230 193.934 230.382 193.934 230.847V233.716C193.934 234.181 194.315 234.563 194.781 234.563C195.247 234.563 195.628 234.181 195.628 233.716V230.847C195.619 230.382 195.247 230 194.781 230Z" fill="#454545"/>
<path d="M237.347 236.891C236.881 236.891 236.499 237.273 236.499 237.738V258.858L232.411 262.825L226.712 262.741L222.494 258.402C222.168 258.067 221.637 258.057 221.302 258.383C220.967 258.709 220.957 259.24 221.283 259.575L225.986 264.417L233.082 264.52L237.924 259.817C237.924 259.817 237.924 259.817 237.933 259.808C237.942 259.799 237.952 259.789 237.97 259.771C237.98 259.761 237.989 259.752 237.989 259.743C237.998 259.733 238.008 259.724 238.017 259.715C238.026 259.706 238.036 259.696 238.045 259.678C238.045 259.668 238.054 259.668 238.054 259.659C238.101 259.594 238.129 259.529 238.147 259.454C238.147 259.445 238.157 259.435 238.157 259.426C238.166 259.408 238.166 259.389 238.166 259.38C238.166 259.37 238.166 259.361 238.175 259.352C238.175 259.333 238.185 259.314 238.185 259.296C238.185 259.286 238.185 259.277 238.185 259.268C238.185 259.249 238.185 259.231 238.185 259.212V259.203V237.738C238.185 237.273 237.812 236.891 237.347 236.891Z" fill="#454545"/>
<path d="M237.347 230C236.882 230 236.5 230.382 236.5 230.847V233.716C236.5 234.181 236.882 234.563 237.347 234.563C237.813 234.563 238.195 234.181 238.195 233.716V230.847C238.185 230.382 237.813 230 237.347 230Z" fill="#454545"/>
<path d="M158.324 234.554C158.79 234.554 159.172 234.181 159.172 233.706V230.847C159.172 230.382 158.79 230 158.324 230C157.859 230 157.477 230.382 157.477 230.847V233.716C157.477 234.181 157.859 234.554 158.324 234.554Z" fill="#454545"/>
<path d="M158.39 236.9C157.924 236.9 157.542 237.282 157.542 237.747V255.105C157.542 255.571 157.924 255.952 158.39 255.952C158.855 255.952 159.237 255.58 159.237 255.105V237.738C159.237 237.272 158.855 236.9 158.39 236.9Z" fill="#454545"/>
<path d="M136.916 236.9C136.45 236.9 136.069 237.282 136.069 237.747V255.105C136.069 255.571 136.45 255.952 136.916 255.952C137.382 255.952 137.763 255.58 137.763 255.105V237.738C137.754 237.272 137.382 236.9 136.916 236.9Z" fill="#454545"/>
<path d="M150.605 236.872H143.723L138.853 241.743C138.527 242.068 138.527 242.609 138.853 242.934C139.021 243.102 139.235 243.186 139.449 243.186C139.663 243.186 139.877 243.102 140.045 242.934L144.422 238.558H150.605C151.071 238.558 151.452 238.185 151.452 237.71C151.452 237.254 151.071 236.872 150.605 236.872Z" fill="#454545"/>
<path d="M124.326 255.953H116.402L110.796 250.356V242.432L116.402 236.826H124.326L129.932 242.432V250.356L124.326 255.953ZM117.1 254.267H123.618L128.228 249.658V243.139L123.618 238.53H117.1L112.49 243.139V249.658L117.1 254.267Z" fill="#454545"/>
</svg>
